HIERARCHY
ROOT SimulationBone
{
	OFFSET 0.000000 0.000000 0.000000
	CHANNELS 6 Xposition Yposition Zposition Zrotation Yrotation Xrotation 
	JOINT Hips
	{
		OFFSET 0.000000 0.000000 0.000000
		CHANNELS 6 Xposition Yposition Zposition Zrotation Yrotation Xrotation 
		JOINT LeftUpLeg
		{
			OFFSET 0.103454 1.857841 10.548502
			CHANNELS 3 Zrotation Yrotation Xrotation
			JOINT LeftLeg
			{
				OFFSET 43.500000 -0.000034 -0.000004
				CHANNELS 3 Zrotation Yrotation Xrotation
				JOINT LeftFoot
				{
					OFFSET 42.372192 0.000027 -0.000002
					CHANNELS 3 Zrotation Yrotation Xrotation
					JOINT LeftToe
					{
						OFFSET 17.300003 0.000001 0.000001
						CHANNELS 3 Zrotation Yrotation Xrotation
						End Site
						{
							OFFSET 0.000000 0.000000 0.000000
						}
					}
				}
			}
		}
		JOINT RightUpLeg
		{
			OFFSET 0.103461 1.857837 -10.548502
			CHANNELS 3 Zrotation Yrotation Xrotation
			JOINT RightLeg
			{
				OFFSET 43.500046 -0.000034 0.000013
				CHANNELS 3 Zrotation Yrotation Xrotation
				JOINT RightFoot
				{
					OFFSET 42.372261 0.000004 0.000013
					CHANNELS 3 Zrotation Yrotation Xrotation
					JOINT RightToe
					{
						OFFSET 17.299986 -0.000008 0.000013
						CHANNELS 3 Zrotation Yrotation Xrotation
						End Site
						{
							OFFSET 0.000000 0.000000 0.000000
						}
					}
				}
			}
		}
		JOINT Spine
		{
			OFFSET 6.901964 -2.603740 0.000003
			CHANNELS 3 Zrotation Yrotation Xrotation
			JOINT Spine1
			{
				OFFSET 12.588108 0.000020 -0.000003
				CHANNELS 3 Zrotation Yrotation Xrotation
				JOINT Spine2
				{
					OFFSET 12.343194 -0.000020 0.000000
					CHANNELS 3 Zrotation Yrotation Xrotation
					JOINT Neck
					{
						OFFSET 25.832893 -0.000004 0.000001
						CHANNELS 3 Zrotation Yrotation Xrotation
						JOINT Head
						{
							OFFSET 11.766617 0.000023 0.000000
							CHANNELS 3 Zrotation Yrotation Xrotation
							End Site
							{
								OFFSET 0.000000 0.000000 0.000000
							}
						}
					}
					JOINT LeftShoulder
					{
						OFFSET 19.745911 -1.480362 6.000106
						CHANNELS 3 Zrotation Yrotation Xrotation
						JOINT LeftArm
						{
							OFFSET 11.284124 -0.000010 -0.000029
							CHANNELS 3 Zrotation Yrotation Xrotation
							JOINT LeftForeArm
							{
								OFFSET 33.000050 0.000006 0.000043
								CHANNELS 3 Zrotation Yrotation Xrotation
								JOINT LeftHand
								{
									OFFSET 25.200006 0.000015 0.000002
									CHANNELS 3 Zrotation Yrotation Xrotation
									End Site
									{
										OFFSET 0.000000 0.000000 0.000000
									}
								}
							}
						}
					}
					JOINT RightShoulder
					{
						OFFSET 19.746103 -1.480366 -6.000076
						CHANNELS 3 Zrotation Yrotation Xrotation
						JOINT RightArm
						{
							OFFSET 11.284135 -0.000031 -0.000006
							CHANNELS 3 Zrotation Yrotation Xrotation
							JOINT RightForeArm
							{
								OFFSET 33.000095 0.000024 0.000006
								CHANNELS 3 Zrotation Yrotation Xrotation
								JOINT RightHand
								{
									OFFSET 25.199774 0.000153 0.000421
									CHANNELS 3 Zrotation Yrotation Xrotation
									End Site
									{
										OFFSET 0.000000 0.000000 0.000000
									}
								}
							}
						}
					}
				}
			}
		}
	}
}
MOTION
Frames: 6
Frame Time: 0.016667
-281.132386 0.000000 -121.281256 0.000000 29.525529 0.000000 -2.635527 86.126678 -0.091783 88.256796 0.568186 179.271851 -174.309365 0.131102 148.256208 -32.422791 0.315832 -17.161287 78.895125 6.362603 -23.695953 21.454553 0.003093 -0.000001 153.366911 -4.382907 -163.392905 -36.238879 1.923423 15.020390 86.245576 -10.940730 -3.072614 21.454558 -0.003107 -0.000017 7.489072 0.256003 -1.281109 4.959046 0.566202 -2.550167 4.641279 0.550938 -2.553536 6.351867 -3.939224 -13.544480 -10.528565 10.968408 -17.703072 171.155032 -77.739562 7.485994 -35.769324 49.485860 3.999413 -70.219610 -14.739786 2.482603 -2.572913 -3.745338 35.368242 -162.875914 70.207170 19.010992 7.156825 -57.629876 -42.089356 -34.959930 16.844703 -1.480320 5.540781 8.057250 -8.896497 
-280.333667 0.000000 -121.823968 0.000000 27.812874 0.000000 -2.676399 85.516493 0.091767 88.403491 1.164915 179.447891 -175.924919 -2.097772 147.912863 -38.527266 0.441100 -16.609864 76.824561 4.515960 -27.607724 21.454547 0.003099 -0.000000 152.852000 -5.166488 -165.149255 -38.480637 2.855756 15.462251 86.798218 -11.369256 -3.980525 21.454560 -0.003107 -0.000017 7.592632 0.490175 -1.004752 5.163739 1.024332 -1.986843 4.845802 1.012455 -1.992986 6.239084 -4.203039 -12.951609 -10.608624 10.547071 -17.011816 172.497760 -77.506286 6.125576 -34.776931 50.174723 3.328002 -72.294009 -13.961070 2.513278 -3.150759 -4.600546 34.763279 -163.379610 70.280262 18.490931 6.178158 -57.481835 -41.997316 -34.314546 17.140879 -1.486402 5.892368 8.076770 -7.428583 
-279.467445 0.000000 -122.354954 0.000000 26.146719 0.000000 -2.568887 85.155403 0.176700 88.774665 1.438433 179.625370 -177.764074 -3.948806 148.650542 -45.047993 0.508552 -16.817521 73.456682 4.201409 -26.524282 21.454546 0.003102 -0.000001 153.219461 -5.421399 -165.565042 -40.034436 3.249347 14.970979 87.710775 -11.084641 -4.581264 21.454560 -0.003108 -0.000017 7.730161 0.665088 -0.758497 5.439001 1.364815 -1.485182 5.120925 1.355958 -1.493391 6.642277 -4.255619 -12.402130 -11.105996 9.936190 -16.321522 173.759506 -77.426193 4.842429 -33.718628 51.200313 2.739875 -74.044447 -13.232051 2.537051 -3.427303 -5.156015 34.641831 -164.391150 70.302622 17.447710 4.825121 -57.135476 -40.956969 -33.824646 17.035726 -1.466716 6.388503 7.956802 -6.208997 
-278.536060 0.000000 -122.874397 0.000000 24.529569 0.000000 -2.398958 84.953009 0.189307 89.239863 1.536268 179.831743 -179.887879 -5.531940 150.210947 -51.738644 0.412601 -17.056200 69.817375 4.892374 -22.503428 21.454547 0.003102 -0.000002 154.117307 -5.345963 -165.081538 -41.109601 3.270693 13.902076 88.816929 -10.347670 -4.972537 21.454558 -0.003110 -0.000017 7.878940 0.806823 -0.541449 5.738140 1.639298 -1.042539 5.419956 1.633108 -1.052416 7.358457 -4.192829 -11.865376 -11.855072 9.227534 -15.614888 174.831068 -77.368623 3.752060 -32.442198 52.376781 2.444849 -75.413166 -12.611106 2.552214 -3.536602 -5.532258 34.798858 -165.678972 70.323263 16.119625 3.226923 -56.722453 -39.330019 -33.471516 16.759585 -1.440445 6.882794 7.655514 -5.363622 
-277.541855 0.000000 -123.382482 0.000000 22.963501 0.000000 -2.248378 84.818909 0.165507 89.678810 1.613511 -179.904853 177.662045 -6.963199 152.345169 -58.352047 0.212438 -16.591928 67.038483 5.800410 -17.525886 21.454551 0.003100 -0.000002 155.211322 -5.156097 -164.134555 -41.906754 3.111950 12.591461 89.959970 -9.420433 -5.260436 21.454557 -0.003111 -0.000017 8.016518 0.941656 -0.352738 6.015550 1.900225 -0.656358 5.697283 1.896363 -0.667821 8.182748 -4.106939 -11.310132 -12.689281 8.509314 -14.878519 175.557923 -77.204956 3.015289 -30.774943 53.512126 2.668704 -76.342342 -12.157029 2.559440 -3.606806 -5.853961 35.033655 -167.021907 70.395840 14.734589 1.485238 -56.381707 -37.450811 -33.234890 16.543068 -1.421953 7.231987 7.138018 -5.017515 
-276.487169 0.000000 -123.879391 0.000000 21.450173 0.000000 -2.171149 84.692130 0.137996 90.015986 1.768835 -179.582557 174.913919 -8.297619 154.807826 -64.619541 0.096475 -14.980863 65.915604 6.022490 -13.220548 21.454553 0.003095 -0.000001 156.254446 -5.011010 -163.183609 -42.569989 2.959087 11.338631 91.004932 -8.535818 -5.527095 21.454556 -0.003111 -0.000017 8.128158 1.082815 -0.187347 6.241566 2.174047 -0.316304 5.923231 2.172233 -0.329431 8.921762 -4.072719 -10.720873 -13.426568 7.852334 -14.111254 175.961407 -76.870001 2.611871 -28.679333 54.471526 3.550409 -76.752785 -11.939202 2.560491 -3.718481 -6.231293 35.243240 -168.217896 70.559080 13.501244 -0.369982 -56.218519 -35.567161 -33.091547 16.551162 -1.419602 7.382171 6.445852 -5.179459 
